<?xml version="1.0" standalone="no"?><!DOCTYPE svg PUBLIC "-//W3C//DTD SVG 1.1//EN" "http://www.w3.org/Graphics/SVG/1.1/DTD/svg11.dtd"><svg t="1659871311617" class="icon" viewBox="0 0 1046 1024" version="1.1" xmlns="http://www.w3.org/2000/svg" p-id="7546" xmlns:xlink="http://www.w3.org/1999/xlink" width="204.296875" height="200"><defs><style type="text/css">@font-face { font-family: feedback-iconfont; src: url("//at.alicdn.com/t/font_1031158_u69w8yhxdu.woff2?t=1630033759944") format("woff2"), url("//at.alicdn.com/t/font_1031158_u69w8yhxdu.woff?t=1630033759944") format("woff"), url("//at.alicdn.com/t/font_1031158_u69w8yhxdu.ttf?t=1630033759944") format("truetype"); }
</style></defs><path d="M576.413957 968.290043c74.468766 60.644766 181.52034 62.965106 265.041703 5.588425 51.722894-35.317106 154.449702-165.441362 37.430468-318.311489 131.845447-33.116596 193.949957-164.972936 156.780936-279.748085-18.290383-55.590128-105.123404-197.152681-291.426043-134.318298C754.077957 109.306553 647.080851 6.307404 526.673702 6.307404c-120.614128 0-229.920681 105.722553-217.948596 235.454639-126.997787-49.467915-253.396426 19.880851-290.707063 134.459914-37.234383 114.491915 24.946383 243.232681 156.650212 279.748086-85.297021 103.456681-59.773277 247.350468 37.975149 318.169872 79.054979 57.387574 186.302638 55.459404 264.562383-7.908766l49.870979-54.729532 49.337191 56.788426z" fill="#f4ea2a" p-id="7547"></path><path d="M803.872681 922.711149c-68.956596 50.404766-166.018723 34.772426-216.292766-34.445617-16.819745-22.811234-40.829277-69.35966-23.268766-134.525277a217.262298 217.262298 0 0 0 153.055319-111.180255c66.756085 1.329021 104.654979 39.238809 120.886468 63.237447 70.677787 105.19966-0.664511 192.512-34.380255 216.913702M779.754213 296.066723c130.516426-30.654638 182.577021 59.980255 195.148255 99.480511 26.656681 81.190128-14.368681 165.572085-99.077447 195.355234-32.114383 10.904511-95.809362 11.035234-135.233361-19.750128 11.035234-72.605957-21.220766-141.028766-58.520511-179.733787 19.281702-58.171915 70.089532-88.837447 97.683064-95.35183M526.706383 69.958809c85.514894 0 154.057532 69.348766 154.918128 154.929021 0.806128 78.72817-52.659745 116.365617-60.307064 122.084766-52.85583-25.861447-118.478979-34.641702-189.494468 0-7.516596-5.719149-60.307064-43.356596-60.307064-122.084766 0.130723-85.580255 69.544851-154.929021 155.190468-154.929021M177.78383 591.011404C96.615489 564.681532 52.006128 476.977021 78.466723 395.786894c26.395234-81.266383 114.034383-125.821277 195.082894-99.611234 27.931234 9.368511 76.52766 37.038298 97.879149 95.210212-37.833532 38.705021-71.614638 119.764426-58.509617 180.398298-56.59234 36.918468-107.716085 27.942128-135.113532 19.227234M466.421106 888.418043c-50.328511 69.348766-147.543149 84.643404-216.565106 34.314893-69.152681-49.870979-84.371064-147.554043-34.238638-216.379915 16.950468-23.268766 54.184851-59.642553 120.548766-63.36817a216.238298 216.238298 0 0 0 153.055319 110.788085c16.754383 70.743149-5.773617 111.37634-22.800341 134.645107" fill="#f4ea2a" p-id="7548"></path><path d="M374.15217 541.009702c0-83.913532 68.21583-152.477957 152.521532-152.477957 84.251234 0 152.728511 68.564426 152.728511 152.477957 0 84.185872-68.477277 152.728511-152.728511 152.728511-84.305702 0-152.521532-68.542638-152.521532-152.728511" fill="#f4ea2a" p-id="7549"></path></svg>