<?xml version="1.0" standalone="no"?><!DOCTYPE svg PUBLIC "-//W3C//DTD SVG 1.1//EN" "http://www.w3.org/Graphics/SVG/1.1/DTD/svg11.dtd"><svg t="1659871258463" class="icon" viewBox="0 0 1024 1024" version="1.1" xmlns="http://www.w3.org/2000/svg" p-id="6017" xmlns:xlink="http://www.w3.org/1999/xlink" width="200" height="200"><defs><style type="text/css">@font-face { font-family: feedback-iconfont; src: url("//at.alicdn.com/t/font_1031158_u69w8yhxdu.woff2?t=1630033759944") format("woff2"), url("//at.alicdn.com/t/font_1031158_u69w8yhxdu.woff?t=1630033759944") format("woff"), url("//at.alicdn.com/t/font_1031158_u69w8yhxdu.ttf?t=1630033759944") format("truetype"); }
</style></defs><path d="M624.544255 431.463296a23.856377 23.856377 0 0 0-9.286298 2.16189 24.257007 24.257007 0 0 0-12.445984 13.171653 23.848818 23.848818 0 0 0-1.625197 9.388347c0.090709 3.310866 0.857953 6.451653 2.161889 9.293858 1.300157 2.834646 3.137008 5.374488 5.378268 7.491023a23.973543 23.973543 0 0 0 17.181732 6.576378c12.782362-0.362835 22.790551-10.801889 23.138267-23.43307a3.386457 3.386457 0 0 0 0.128504-0.419528 3.386457 3.386457 0 0 0 0.056693-0.287244 3.386457 3.386457 0 0 0 0.037795-0.585827 3.386457 3.386457 0 0 0-0.022677-0.291023 3.386457 3.386457 0 0 0-0.120945-0.578268 3.386457 3.386457 0 0 0-0.166299-0.434646c-0.517795-6.058583-3.068976-11.542677-7.234016-15.477165a24.181417 24.181417 0 0 0-7.789606-4.943622 23.852598 23.852598 0 0 0-9.392126-1.632756z m0.188977 6.769134a17.223307 17.223307 0 0 1 17.763779 16.781102 17.227086 17.227086 0 0 1-16.781102 17.763779 17.223307 17.223307 0 0 1-17.763779-16.781102 17.223307 17.223307 0 0 1 16.781102-17.763779z m-124.53543-74.403778c-13.235905 0.377953-23.735432 11.485984-23.35748 24.72189 0.377953 13.239685 11.489763 23.735432 24.721889 23.357479 12.782362-0.359055 22.790551-10.79811 23.138267-23.42929a3.386457 3.386457 0 0 0 0.222993-1.292599 3.386457 3.386457 0 0 0-0.302363-1.27748c-1.065827-12.585826-11.640945-22.442834-24.419527-22.08z m0.192756 6.769134a17.227086 17.227086 0 0 1 17.763779 16.781102 17.227086 17.227086 0 0 1-16.781102 17.763779 17.227086 17.227086 0 0 1-17.763779-16.781102 17.227086 17.227086 0 0 1 16.781102-17.763779z m69.233384 11.470866c-13.239685 0.377953-23.735432 11.485984-23.361259 24.721889 0.377953 13.235905 11.489763 23.727873 24.721889 23.3537 12.782362-0.362835 22.790551-10.801889 23.142046-23.43307a3.386457 3.386457 0 0 0 0.219213-1.292598 3.386457 3.386457 0 0 0-0.291024-1.262362c-1.058268-12.597165-11.644724-22.450393-24.430865-22.087559z m-135.118107 4.713071c-13.239685 0.377953-23.735432 11.485984-23.361259 24.721889 0.377953 13.235905 11.489763 23.735432 24.725668 23.35748 12.774803-0.359055 22.767873-10.786771 23.130708-23.406614a3.386457 3.386457 0 0 0 0.226772-1.315275 3.386457 3.386457 0 0 0-0.306142-1.303937c-1.080945-12.578267-11.644724-22.416377-24.415747-22.053543z m135.307083 2.048504a17.227086 17.227086 0 0 1 17.763779 16.781102 17.227086 17.227086 0 0 1-16.781102 17.763779 17.223307 17.223307 0 0 1-17.763779-16.777323 17.234645 17.234645 0 0 1 16.781102-17.767558z m-135.118107 4.720629a17.227086 17.227086 0 0 1 17.763779 16.781102 17.223307 17.223307 0 0 1-16.777322 17.763779 17.234645 17.234645 0 0 1-17.763779-16.781101 17.227086 17.227086 0 0 1 16.781102-17.76378z m74.324408 28.210393c-13.235905 0.377953-23.727873 11.485984-23.3537 24.72189 0.377953 13.235905 11.489763 23.727873 24.725668 23.3537 12.771023-0.362835 22.760314-10.786771 23.123149-23.402834a3.386457 3.386457 0 0 0 0.226772-1.322835 3.386457 3.386457 0 0 0-0.298583-1.292598c-1.073386-12.582047-11.648504-22.423936-24.423306-22.057323z m0.192756 6.765355a17.223307 17.223307 0 0 1 17.763779 16.781102 17.227086 17.227086 0 0 1-16.781102 17.763779 17.227086 17.227086 0 0 1-17.76-16.781102 17.223307 17.223307 0 0 1 16.777323-17.763779z m-117.342989 13.451338c-13.235905 0.377953-23.727873 11.489763-23.353701 24.721889 0.377953 13.239685 11.482204 23.731653 24.71811 23.35748 12.774803-0.366614 22.771653-10.79433 23.130708-23.414173a3.386457 3.386457 0 0 0 0.226772-1.311496 3.386457 3.386457 0 0 0-0.298583-1.292598c-1.073386-12.585826-11.644724-22.423936-24.423306-22.061102z m0.192756 6.769134a17.223307 17.223307 0 0 1 17.763779 16.777322 17.223307 17.223307 0 0 1-16.781102 17.76 17.227086 17.227086 0 0 1-17.763779-16.777323 17.227086 17.227086 0 0 1 16.781102-17.759999z m185.053223 23.251653a23.886614 23.886614 0 0 0-9.524409 0.593385c-12.786141 3.43559-20.420787 16.679055-16.985196 29.465196 3.310866 12.336378 15.76063 19.630866 28.115904 17.068347a3.386457 3.386457 0 0 0 1.349292-0.08315 3.386457 3.386457 0 0 0 1.190551-0.593386c11.988661-3.964724 19.11307-16.524094 15.798425-28.864251-2.573858-9.592441-10.665827-16.289763-19.944567-17.586141z m-127.698894 2.615433a3.386457 3.386457 0 0 0-0.744567 0.07559c-12.532913-1.51937-24.328818 6.818268-26.585196 19.400315-2.343307 13.031811 6.387401 25.576062 19.426771 27.915589 13.031811 2.339528 25.576062-6.391181 27.91181-19.426771 2.260157-12.578267-5.907401-24.491338-18.187086-27.420471a3.386457 3.386457 0 0 0-1.235905-0.491339 3.386457 3.386457 0 0 0-0.585827-0.052913z m126.799367 4.07811A17.223307 17.223307 0 0 1 590.51339 491.338571a17.227086 17.227086 0 0 1-12.204094 21.165353 17.227086 17.227086 0 0 1-21.165354-12.200314 17.227086 17.227086 0 0 1 12.204094-21.169134 17.332913 17.332913 0 0 1 6.863622-0.442204z m-127.407871 2.63433a17.230866 17.230866 0 0 1 13.954015 20.061732 17.230866 17.230866 0 0 1-20.057952 13.954016 17.230866 17.230866 0 0 1-13.954015-20.061732 17.230866 17.230866 0 0 1 20.057952-13.954016z m62.762833 6.183307c-13.243464 0-24.049133 10.809449-24.049133 24.052913s10.805669 24.052913 24.049133 24.052913c12.778582 0 23.070236-10.144252 23.788346-22.752755a3.386457 3.386457 0 0 0 0.264567-1.300158 3.386457 3.386457 0 0 0-0.264567-1.292598c-0.714331-12.608504-11.005984-22.760314-23.788346-22.760315z m0 6.780473a17.223307 17.223307 0 0 1 17.272441 17.27244 17.223307 17.223307 0 0 1-17.272441 17.27622 17.223307 17.223307 0 0 1-17.27622-17.27244 17.223307 17.223307 0 0 1 17.27244-17.27622z m124.580784 6.353385a23.860157 23.860157 0 0 0-9.282519 2.165669 24.257007 24.257007 0 0 0-12.445984 13.167874 23.848818 23.848818 0 0 0-1.628976 9.392126c0.094488 3.307087 0.861732 6.451653 2.161889 9.290078 1.303937 2.838425 3.137008 5.374488 5.378268 7.491024a23.973543 23.973543 0 0 0 17.181732 6.576378c12.782362-0.362835 22.790551-10.79811 23.138267-23.429291a3.386457 3.386457 0 0 0 0.128504-0.423307 3.386457 3.386457 0 0 0 0.056693-0.283465 3.386457 3.386457 0 0 0 0.037795-0.585827 3.386457 3.386457 0 0 0-0.022677-0.294803 3.386457 3.386457 0 0 0-0.120945-0.578267 3.386457 3.386457 0 0 0-0.16252-0.434646c-0.521575-6.058583-3.068976-11.542677-7.234015-15.473385a24.181417 24.181417 0 0 0-7.793386-4.943622 23.852598 23.852598 0 0 0-9.388346-1.636536z m0.192756 6.772913a17.223307 17.223307 0 0 1 17.763779 16.781102 17.227086 17.227086 0 0 1-16.781102 17.763779 17.223307 17.223307 0 0 1-17.763779-16.784881 17.223307 17.223307 0 0 1 16.781102-17.763779z m-249.853222 7.884095c-13.235905 0.377953-23.735432 11.485984-23.35748 24.721889 0.377953 13.235905 11.485984 23.731653 24.721889 23.3537 12.778582-0.362835 22.779212-10.79811 23.130709-23.425511a3.386457 3.386457 0 0 0 0.226771-1.300158 3.386457 3.386457 0 0 0-0.294803-1.300157c-1.080945-12.578267-11.652283-22.412598-24.427086-22.049763z m0.192756 6.765354a17.223307 17.223307 0 0 1 17.763779 16.781102 17.227086 17.227086 0 0 1-16.781102 17.759999 17.223307 17.223307 0 0 1-17.763779-16.777322 17.227086 17.227086 0 0 1 16.781102-17.763779z m167.606925 14.815748a23.977322 23.977322 0 0 0-17.310236 6.23622c-9.445039 8.609764-10.212283 23.028661-2.252598 32.828975a3.386457 3.386457 0 0 0 0.687874 1.141418 3.386457 3.386457 0 0 0 1.077165 0.786141c9.025512 8.828976 23.451968 9.388346 32.893228 0.778583 9.785197-8.923464 10.495748-24.188976 1.572283-33.974172a23.984881 23.984881 0 0 0-16.667716-7.797165z m-87.908029 2.740157c-5.669291 0.869291-10.903937 3.92315-14.777953 8.621102a3.386457 3.386457 0 0 0-0.975118 0.88441 3.386457 3.386457 0 0 0-0.55559 1.209448c-6.890079 10.582677-4.607244 24.842834 5.691968 32.413228 10.669606 7.846299 25.776377 5.544567 33.622676-5.125039 7.842519-10.669606 5.533228-25.780157-5.136378-33.622677a23.969763 23.969763 0 0 0-17.869605-4.380472z m87.598108 3.979842a17.223307 17.223307 0 0 1 11.969763 5.642835 17.227086 17.227086 0 0 1-1.126299 24.408188 17.227086 17.227086 0 0 1-24.411968-1.130078 17.227086 17.227086 0 0 1 1.130079-24.408189 17.227086 17.227086 0 0 1 12.438425-4.512756z m-86.581415 2.672126a17.219527 17.219527 0 0 1 12.839054 3.182362 17.227086 17.227086 0 0 1 3.692599 24.151181 17.234645 17.234645 0 0 1-24.15874 3.688819 17.223307 17.223307 0 0 1-3.685039-24.151181 17.230866 17.230866 0 0 1 11.312126-6.871181z m142.801886 23.773228c-13.235905 0.377953-23.735432 11.489763-23.35748 24.721889 0.374173 13.239685 11.482204 23.731653 24.71811 23.35748 12.782362-0.366614 22.779212-10.801889 23.130708-23.429291a3.386457 3.386457 0 0 0 0.230551-1.296378 3.386457 3.386457 0 0 0-0.298583-1.300157c-1.077165-12.582047-11.648504-22.416377-24.423306-22.053543z m0.188976 6.769134a17.223307 17.223307 0 0 1 17.763779 16.777322 17.234645 17.234645 0 0 1-16.781102 17.763779 17.227086 17.227086 0 0 1-17.763779-16.781102 17.227086 17.227086 0 0 1 16.781102-17.759999z m-191.931964 2.914015c-13.235905 0.377953-23.735432 11.489763-23.357479 24.725669 0.374173 13.235905 11.482204 23.735432 24.718109 23.35748 12.782362-0.362835 22.779212-10.79811 23.130708-23.421732a3.386457 3.386457 0 0 0 0.230552-1.300157 3.386457 3.386457 0 0 0-0.298583-1.28126c-1.065827-12.585826-11.640945-22.442834-24.423307-22.08z m0.188977 6.769134a17.227086 17.227086 0 0 1 17.763779 16.781102 17.227086 17.227086 0 0 1-16.781102 17.763779 17.227086 17.227086 0 0 1-17.763779-16.781102 17.227086 17.227086 0 0 1 16.781102-17.763779z m134.815744 23.255433c-13.239685 0.377953-23.735432 11.485984-23.361259 24.721889 0.377953 13.235905 11.489763 23.735432 24.721889 23.35748 12.786141-0.359055 22.790551-10.801889 23.138267-23.433071a3.386457 3.386457 0 0 0 0.222993-1.285039 3.386457 3.386457 0 0 0-0.306142-1.315276c-1.084724-12.574488-11.648504-22.412598-24.415748-22.045983z m-73.353069 2.343307c-13.235905 0.374173-23.727873 11.485984-23.3537 24.718109 0.377953 13.239685 11.489763 23.735432 24.725669 23.35748 12.767244-0.362835 22.752755-10.779212 23.123149-23.391495a3.386457 3.386457 0 0 0 0.226772-1.334174 3.386457 3.386457 0 0 0-0.298583-1.292598c-1.073386-12.582047-11.644724-22.423936-24.423307-22.061102z m73.542046 4.422047a17.223307 17.223307 0 0 1 17.763779 16.781102 17.234645 17.234645 0 0 1-16.781102 17.763779 17.227086 17.227086 0 0 1-17.763779-16.781102 17.227086 17.227086 0 0 1 16.781102-17.763779z m-73.34929 2.343307a17.223307 17.223307 0 0 1 17.763779 16.781102 17.223307 17.223307 0 0 1-16.781102 17.75622 17.223307 17.223307 0 0 1-17.75622-16.773543 17.223307 17.223307 0 0 1 16.773543-17.763779z m21.142677-265.130072c9.702047-0.574488 14.086299 2.214803 19.494803 6.205984 5.408504 3.994961 11.614488 9.388346 22.594015 11.91307 10.983307 2.528504 18.912755 0.385512 25.526928-0.842834 6.610394-1.228346 11.773228-1.825512 20.250708 2.936692 8.47748 4.762205 10.658267 9.482834 13.046929 15.768189 2.392441 6.285354 4.690394 14.173228 12.56315 22.23874 7.872756 8.061732 15.707716 10.548661 21.932597 13.088503 6.224882 2.543622 10.896378 4.830236 15.454488 13.417323 4.55811 8.590866 3.83622 13.742362 2.449134 20.322519-1.387087 6.576378-3.715275 14.460472-1.451338 25.500472 2.267716 11.03622 7.506142 17.363149 11.368818 22.866141 3.866457 5.502992 6.553701 9.959055 5.744882 19.645984-0.808819 9.690708-4.195275 13.632756-8.919685 18.421417-4.724409 4.784882-10.949291 10.15559-15.012283 20.666456-4.062992 10.507086-3.068976 18.670866-2.793071 25.387086 0.275906 6.72 0.128504 11.913071-5.790236 19.627086-5.91874 7.710236-10.900157 9.203149-17.461417 10.673385-6.56126 1.474016-14.702362 2.626772-23.803464 9.271181s-12.676535 14.044724-16.07433 19.846299c-3.401575 5.801575-6.334488 10.091338-15.484724 13.383307-9.146456 3.288189-14.142992 1.844409-20.458582-0.464882-6.31559-2.305512-13.791496-5.741102-25.03937-5.068346-11.247874 0.668976-18.255118 4.96252-24.253228 8.005039-5.99811 3.04252-10.786771 5.064567-20.258267 2.883779-9.479055-2.180787-12.899527-6.096378-16.962519-11.451968-4.066772-5.35937-8.492598-12.283464-18.31937-17.801574-9.826771-5.51811-18.039685-5.691968-24.729448-6.376063-6.689764-0.680315-11.811023-1.568504-18.602834-8.526614-6.79559-6.954331-7.559055-12.098267-8.088189-18.803149-0.521575-6.704882-0.498898-14.917795-5.782677-24.873071-5.283779-9.955275-12.094488-14.551181-17.35559-18.738897-5.253543-4.195275-9.093543-7.710236-11.047559-17.234645-1.950236-9.524409 0.188976-14.263937 3.371339-20.186456 3.186142-5.926299 7.645984-12.823937 8.583307-24.052913 0.941102-11.232756-2.313071-18.776692-4.467402-25.145196-2.15811-6.372283-3.484724-11.399055 0.018898-20.469921 3.507401-9.070866 7.868976-11.897952 13.749921-15.159685s13.364409-6.659527 20.220472-15.598109c6.863622-8.938582 8.216693-17.049448 9.845669-23.572913 1.625197-6.527244 3.227716-11.470866 11.081574-17.204409 7.853858-5.733543 13.050708-5.75622 19.75937-5.321575 6.712441 0.434646 14.842204 1.625197 25.447558-2.184567 10.605354-3.813543 16.119685-9.902362 21.014173-14.513385 4.898268-4.607244 8.931023-7.899212 18.63307-8.47748z" p-id="6018" fill="#d4237a"></path><path d="M504.793707 985.791472c-6.87874-7.377638-26.494488-19.642204-55.234014-34.522204-42.663306-22.091338-59.402833-36.880629-68.492597-60.510235-6.096378-15.843779-5.159055-26.87622 4.913386-57.860786 9.728504-29.91118 10.144252-32.382991 5.446299-32.360314-2.297953 0.011339-4.63748 3.548976-7.75937 11.731653-10.48063 27.473385-31.02992 52.157479-51.813542 62.245038-20.908346 10.148031-36.283464 8.503937-96.340155-10.299212-16.573228-5.189291-36.812598-10.386141-44.976377-11.546457-8.163779-1.164094-15.087874-2.365984-15.394015-2.668346-0.302362-0.306142-1.394646-6.432756-2.418898-13.617637-2.15811-15.072756-3.930709-21.864566-15.450708-59.183621-10.832126-35.096692-13.511811-52.648818-10.582677-69.354329 4.96252-28.342676 13.591181-38.105196 50.596534-57.259841 22.919055-11.867716 26.823306-14.95937 23.319685-18.485669-1.662992-1.67811-5.045669-0.805039-14.211024 3.67748-32.322519 15.813543-69.02929 13.749921-95.561572-5.374488-14.551181-10.488189-21.67559-21.135118-35.826141-53.518109-6.723779-15.390236-17.400944-37.405983-23.724094-48.925983-7.203779-13.11496-10.900157-21.75874-9.894803-23.11181 10.382362-13.969134 16.471181-23.950866 29.419842-48.226771 8.375433-15.700157 18.096378-32.859212 21.603779-38.135432 9.422362-14.161889 25.443779-28.282204 39.484723-34.801889 11.028661-5.11748 13.787716-5.646614 24.952441-4.788661 7.963464 0.612283 22.098897 4.233071 38.664566 9.898582 22.412598 7.672441 26.479369 8.56063 28.754645 6.300473 3.375118-3.352441 1.273701-5.11748-11.622047-9.766299-42.156849-15.1937-71.856376-54.088818-67.683778-88.641258 0.653858-5.416063 3.821102-18.224881 7.03748-28.459842 3.216378-10.23496 10.083779-35.03622 15.257952-55.116849 5.174173-20.07685 9.611338-36.657637 9.860788-36.839054 0.249449-0.188976 7.226457-1.371968 15.507401-2.634331 8.277165-1.266142 28.611023-6.489449 45.176692-11.603149 16.569448-5.12126 35.629605-10.461732 42.357164-11.867716 23.368818-4.894488 51.628345-2.418898 63.496061 5.555905 9.452598 6.349606 21.581102 23.633385 33.626456 47.920629 5.933858 11.969763 11.905512 22.200944 13.266142 22.733858 5.733543 2.260157 5.933858-2.891339 0.570708-14.815748-8.409449-18.708661-11.943307-34.495747-11.943307-53.404723-0.007559-38.815747 14.059842-54.141731 81.702046-89.02677 19.075275-9.84189 33.9137-18.924094 40.637479-24.880629l10.590236-9.377008 5.979212 5.623937c10.828346 10.193386 19.003464 15.382677 50.180787 31.842519 48.907085 25.817952 61.734802 36.676535 73.058265 61.859526 7.974803 17.741102 7.52126 26.39244-2.985826 57.055747-9.327874 27.208818-10.344567 33.206928-5.480315 32.262046 3.446929-0.665197 3.008504 0.045354 13.946456-22.63181 9.962834-20.670236 26.914015-39.51496 42.640629-47.410393 20.144881-10.110236 41.1137-8.708031 87.775746 5.873386 34.204724 10.688504 46.491967 13.795275 61.009132 15.443149l11.754331 1.330394-0.022677 6.217323c-0.030236 10.027086 4.663937 29.858267 14.460472 61.050707 11.546456 36.767243 14.192126 51.102991 12.805039 69.380785-2.403779 31.721574-13.077165 45.10866-50.585196 63.484723-28.165039 13.795275-31.808503 16.259527-28.724409 19.407874 1.734803 1.768819 5.480315 0.982677 16.939843-3.548977 24.015118-9.505512 36.737007-11.965984 56.949919-11.013543 20.288503 0.95622 32.288503 5.722205 43.948346 17.453858 9.497953 9.562204 25.655432 35.051338 37.738582 59.538896 11.656063 23.622047 24.113385 43.642204 31.498581 50.607873l4.709292 4.444725-8.212914 10.019527c-9.475275 11.561575-19.419212 28.081889-32.137322 53.404723-21.456377 42.727558-39.964723 61.734802-69.233384 71.10425-8.870551 2.842205-23.584251 0.275906-49.462676-8.617322-21.690708-7.460787-27.250393-8.08063-27.26929-3.053859-0.007559 2.449134 2.324409 4.15748 7.974803 5.846929 19.982362 5.971653 42.912755 22.654488 53.725983 39.095432 16.391811 24.914645 17.540787 43.623306 5.079684 82.525983-4.633701 14.468031-11.701417 40.036534-15.703936 56.821416l-7.27937 30.519684-6.723779 0.952441c-19.468346 2.759055-31.645983 5.657953-54.723779 13.03937-52.837794 16.894488-69.637794 18.55748-94.423934 9.377007-19.328503-7.158425-27.254173-15.843779-42.87496-46.979526-6.621732-13.190551-13.232126-24.445984-14.698582-25.020472-6.353386-2.471811-6.289134 2.932913 0.211653 17.35937 7.91811 17.574803 10.771653 30.213543 10.714961 47.497321-0.07937 24.95244-11.414173 47.894172-30.289133 61.315274-4.663937 3.314646-22.896377 13.772598-40.512755 23.232756-17.612598 9.460157-39.382676 22.083779-48.362834 28.051653l-16.335117 10.851023z m-5.5937-315.016055c15.499842-6.765354 28.958739-7.589291 42.413857-2.596536 19.623307 7.286929 32.367873 2.759055 44.454802-15.798425 9.618897-14.766614 18.085039-21.010393 33.962834-25.050708 12.899527-3.28063 18.916535-7.128189 24.971338-15.964724 3.541417-5.166614 4.263307-8.757165 4.32-21.445039 0.075591-17.59748 4.856693-30.160629 15.080314-39.643463 3.337323-3.091653 7.317165-7.99748 8.844094-10.903937 4.15748-7.899212 3.730394-22.63937-0.869291-29.964094-13.787716-21.966614-15.042519-27.288188-12.366614-52.505195 1.394646-13.137637 1.145197-15.042519-2.925354-22.408819-3.692598-6.689764-6.685984-9.082205-17.707086-14.165668-16.769763-7.736693-24.287243-15.318425-31.91811-32.209134-4.032756-8.919685-8.163779-14.929133-12.321259-17.91496-5.858268-4.206614-7.649764-4.459842-28.240629-4.017637-24.377952 0.529134-27.892913-0.39685-44.469921-11.724095-15.877795-10.847244-29.098582-9.584882-44.167558 4.217953-12.502677 11.451968-22.045984 14.985826-40.437164 14.978267-23.954645-0.011339-31.332283 5.378268-38.018267 27.787086-4.784882 16.044094-11.701417 24.650078-28.180156 35.074015-16.603464 10.507086-21.244724 24.684094-14.452914 44.133542 4.694173 13.443779 3.571653 24.978897-4.070551 41.763779-9.781417 21.479055-7.570394 31.048818 10.866142 46.998424 12.23811 10.590236 15.987401 17.937637 19.022362 37.300157 1.375748 8.776063 3.892913 16.87559 6.300472 20.277164 4.660157 6.587716 14.505826 11.803464 22.337007 11.829921 3.023622 0.007559 10.083779 1.36063 15.696378 3.000945 8.609764 2.520945 12.298582 5.19685 23.584251 17.109921 18.565039 19.589291 26.241259 21.471496 48.294802 11.84126z" p-id="6019" fill="#d4237a"></path></svg>