<?xml version="1.0" standalone="no"?><!DOCTYPE svg PUBLIC "-//W3C//DTD SVG 1.1//EN" "http://www.w3.org/Graphics/SVG/1.1/DTD/svg11.dtd"><svg t="1659871096502" class="icon" viewBox="0 0 1024 1024" version="1.1" xmlns="http://www.w3.org/2000/svg" p-id="2612" xmlns:xlink="http://www.w3.org/1999/xlink" width="200" height="200"><defs><style type="text/css">@font-face { font-family: feedback-iconfont; src: url("//at.alicdn.com/t/font_1031158_u69w8yhxdu.woff2?t=1630033759944") format("woff2"), url("//at.alicdn.com/t/font_1031158_u69w8yhxdu.woff?t=1630033759944") format("woff"), url("//at.alicdn.com/t/font_1031158_u69w8yhxdu.ttf?t=1630033759944") format("truetype"); }
</style></defs><path d="M148.325 642.045c-9.923-6.95-36.918-42.743-46.419-61.547C92.84 562.552 39.234 406.51 39.234 398.06c0-4.985 132.151-95.34 159.827-109.278 18.472-9.302 46.086-17.76 68.115-20.865l12.616-1.778-1.828 7.28c-4.056 16.163-6.847 52.494-5.337 69.49 2.403 27.064 10.928 59.357 21.902 82.966 11.803 25.394 21.287 39.525 40.338 60.103l14.373 15.523h-7.726c-9.954 0-47.352 10.841-66.29 19.216-45.942 20.318-87.633 60.96-111.894 109.077-4.47 8.865-8.432 16.117-8.805 16.117-0.373 0-3.163-1.74-6.2-3.867zM499.6 365.644c-34.457-62.901-104.566-110.484-174.437-118.389-8.338-0.943-15.16-2.179-15.16-2.745 0-2.473 15.869-31.542 22.843-41.845 4.21-6.219 13.847-17.735 21.416-25.59 11.26-11.688 81.059-65.433 145.311-111.89l12.926-9.346 7.704 5.566c23.632 17.072 128.023 99.342 137.528 108.386 15.958 15.181 31.876 36.379 42.932 57.17l9.548 17.956-13.79 2.146c-79.112 12.316-142.018 54.653-178.198 119.93l-8.995 16.229zM856.533 635.144c-29.727-63.944-90.785-113.033-160.376-128.936L671 500.458l8.68-9.148c33.56-35.369 56.094-80.504 63.684-127.553 3.058-18.955 2.1-74.293-1.547-89.433l-1.613-6.696 15.053 2.063c19.631 2.69 47.56 11.396 65.338 20.366 14.674 7.404 82.763 54.29 133.408 91.866l28.968 21.492-11.335 31.637c-56.14 156.693-60.79 166.489-94.935 199.984l-13.886 13.62zM685.211 953.999c-79.653-3.41-92.086-5.165-122.49-17.292-7.801-3.112-19.018-8.355-24.927-11.652l-10.743-5.994 12.835-12.005c34.899-32.644 61.346-83.453 69.388-133.307 1.888-11.706 2.638-31.984 1.87-50.612-0.913-22.188-0.461-30.745 1.58-29.909 57.17 23.411 68.132 25.89 113.747 25.723 42.887-0.157 64.501-4.987 101.07-22.586l23.709-11.409 3.042 14.647c1.88 9.052 2.55 26.958 1.755 46.88-1.232 30.862-2.023 34.597-18.574 87.678-9.508 30.494-22.187 70.529-28.174 88.967l-10.887 33.524-17.92 0.33c-9.855 0.18-52.732-1.162-95.281-2.983zM187.57 864.677l-25.73-88.538-0.057-37.392c-0.032-20.565 0.817-41.489 1.887-46.497l1.945-9.105 23.842 11.685c37.137 18.2 55.053 21.998 103.784 21.998 46.045 0 63.061-3.213 95.72-18.075l18.356-8.353-1.26 33.844c-2.632 70.727 18.029 127.107 64.514 176.044l17.7 18.634-5.97 3.902c-10.628 6.947-36.44 17.46-56.254 22.91-17.54 4.826-28.342 5.422-116.044 6.4l-96.703 1.08z" p-id="2613" fill="#d4237a"></path><path d="M488.08 886.627c-39.315-41.677-61.481-95.957-61.254-149.998 0.089-21.116 5.218-49.52 13.717-75.962 3.627-11.286 6.282-20.832 5.9-21.214-0.382-0.383-8.748 5.163-18.592 12.323-23.521 17.11-52.92 31.869-77.76 39.039-28.886 8.336-83.474 8.336-112.36 0-19.978-5.767-59.34-23.948-62.334-28.793-2.087-3.377 14.737-36.49 26.868-52.88 14.237-19.236 43.662-45.943 63.725-57.84 34.265-20.316 63.656-28.401 112.592-30.973l30.517-1.604-16.334-11.567-16.334-11.568 11.604-1.586c11.484-1.57 11.994-1.305 48.972 25.329l37.367 26.914-46.18-0.867c-34.438-0.647-46.458-1.701-47.27-4.145-0.6-1.803-4.608-5.097-8.907-7.32-17.618-9.11-37.28 3.936-34.731 23.047 1.636 12.269 7.702 19.216 18.556 21.252 8.513 1.597 23.088-3.807 24.896-9.23 0.588-1.766 12.62-2.461 34.401-1.989l33.497 0.726-51.658 16.072-51.658 16.072-11.051-5.468c-9.736-4.817-12.273-5.102-21.315-2.393-26.471 7.93-26.717 46.58-0.346 54.48 14.48 4.34 27.873-1.71 33.628-15.186l4.29-10.043 41.783-13.228c22.98-7.276 42.71-13.229 43.842-13.229 1.133 0-5.899 5.802-15.626 12.894-14.742 10.747-19.538 12.894-28.812 12.894-15.816 0-25.48 8.643-25.48 22.79 0 14.942 8.653 23.627 23.541 23.627 12.677 0 20.376-5.825 22.92-17.34 0.869-3.937 1.769-7.972 2-8.967 0.534-2.306 69.741-53.228 70.935-52.194 2.166 1.875-26.866 83.659-29.697 83.659-1.727 0-6.37 2.778-10.317 6.173-13.286 11.428-8.182 33.974 9.195 40.618 8.017 3.064 22.202-1.543 27.342-8.881 4.844-6.917 5.001-19.68 0.324-26.377-3.131-4.483-2.384-8.3 6.294-32.163l9.847-27.077 0.152 53.335c0.14 48.99-0.222 53.454-4.447 54.795-2.53 0.803-6.591 4.832-9.026 8.953-17.594 29.784 23.49 59.888 45.704 33.488 10.255-12.187 9.298-27.792-2.423-39.513-10.283-10.283-10.315-10.585-7.298-69.745l1.707-33.471 7.387 21.866c5.794 17.153 6.813 23.144 4.73 27.79-8.389 18.703 1.669 36.626 20.551 36.626 14.516 0 23.209-8.692 23.209-23.209 0-10.842-8.558-23.208-16.06-23.208-3.283 0-32.173-81.564-29.749-83.989 0.606-0.605 16.672 10.561 35.704 24.815 31.1 23.291 34.766 26.864 36.21 35.293 2.037 11.887 10.361 18.723 22.8 18.723 13.959 0 23.3-9.302 23.3-23.203 0-14.813-8.648-23.214-23.897-23.214-9.331 0-13.96-2.024-27.295-11.933-8.832-6.563-15.515-12.476-14.851-13.14 0.664-0.664 19.773 4.941 42.465 12.456 41.234 13.655 41.26 13.668 45.125 23.508 2.86 7.283 6.375 10.894 13.497 13.87 20.584 8.6 39.74-4.148 39.74-26.447 0-23.036-23.006-34.623-44.115-22.219-6.382 3.75-9.449 3.03-60.6-14.235l-53.878-18.186 32.761-0.203c31.637-0.197 32.984 0.018 39.21 6.243 8.914 8.915 25.022 8.97 33.874 0.117 8.797-8.796 8.797-24.962 0-33.758-8.881-8.882-24.96-8.798-33.935 0.178l-6.507 6.507-43.788-0.705-43.788-0.705 35.94-25.136c31.166-21.797 36.958-24.933 43.608-23.603 15.722 3.145 31.85-13.099 28.048-28.247-3.178-12.662-10.54-18.428-23.529-18.428-10.012 0-13.11 1.227-18.279 7.235-3.423 3.98-6.224 9.97-6.224 13.312 0 4.54-4.284 9.134-16.936 18.163-9.315 6.647-17.525 11.498-18.243 10.78-0.718-0.719 9.784-16.344 23.34-34.723 23.59-31.987 25.1-33.478 35.292-34.845 19.98-2.68 31.895-21.463 24.578-38.749-6.426-15.18-18.284-21.214-33.457-17.025-15.521 4.286-24.237 19.27-20.134 34.614 1.825 6.823-0.843 11.405-28.849 49.55-16.973 23.118-31.197 41.696-31.608 41.285-0.411-0.412 3.274-13.498 8.19-29.08 7.784-24.673 9.879-28.747 16.226-31.557 14.022-6.207 17.192-23.832 6.56-36.469-5.285-6.28-8.707-7.934-16.415-7.934-19.18 0-30.28 16.956-22.287 34.047 3.846 8.226 3.53 9.887-9.71 51.052l-13.684 42.55-4.147-12.895c-21.475-66.783-22.722-72.248-18.44-80.832 12.177-24.41-18.399-45.763-37.778-26.384-4.505 4.505-7.538 10.263-7.538 14.311 0 9.948 6.952 21.694 13.866 23.43 5.07 1.272 7.324 5.689 14.083 27.597 4.426 14.346 7.717 26.413 7.313 26.817-0.404 0.403-12.854-16.343-27.668-37.214l-26.934-37.948V399.75c0-18.117-4.113-24.703-18.363-29.406-17.288-5.706-33.875 4.665-36.293 22.692-2.45 18.263 8.056 31.268 26.194 32.429 8.059 0.515 10.609 3.25 34.916 37.447 14.422 20.29 25.728 37.385 25.124 37.988-0.604 0.604-9.657-5.04-20.118-12.542-15.289-10.964-19.365-15.328-20.78-22.248-2.59-12.662-10.61-19.473-22.928-19.473-18.097 0-27.853 15.398-21.99 34.709 1.74 5.733 0.77 5.31-8.895-3.881-25.889-24.619-47.647-64.146-57.064-103.662-4.51-18.927-5.196-28.051-4.132-54.931 0.702-17.729 2.656-36.725 4.343-42.214l3.066-9.98 15.045 1.702c85.885 9.716 159.985 73.834 184.58 159.714 2.7 9.425 5.697 17.137 6.662 17.137 0.965 0 4.897-9.574 8.737-21.275 23.888-72.79 73.712-123.635 143.009-145.937 14.533-4.677 44.22-10.643 53.252-10.703 5.641-0.037 9.93 26.396 9.827 60.582-0.119 40.1-5.465 62.272-23.376 96.951-15.438 29.89-35.943 53.738-65.15 75.77l-24.003 18.106 30.527 2.03c16.79 1.117 39.81 4.322 51.157 7.122 60.259 14.87 113.73 57.318 141.15 112.05 11.91 23.77 12.259 22.601-10.207 34.23-77.82 40.283-162.763 31.357-237.761-24.984-7.691-5.778-14.361-10.128-14.823-9.667-0.46 0.462 2.098 9.448 5.686 19.97 8.226 24.121 14.105 57.327 14.06 79.425-0.106 53.954-29.652 120.472-68.824 154.953-6.495 5.717-13.245 10.394-15.001 10.394-1.756 0-10.673-7.93-19.816-17.621z" p-id="2614" fill="#d4237a"></path></svg>