<?xml version="1.0" standalone="no"?><!DOCTYPE svg PUBLIC "-//W3C//DTD SVG 1.1//EN" "http://www.w3.org/Graphics/SVG/1.1/DTD/svg11.dtd"><svg t="1659871362605" class="icon" viewBox="0 0 1024 1024" version="1.1" xmlns="http://www.w3.org/2000/svg" p-id="9107" xmlns:xlink="http://www.w3.org/1999/xlink" width="200" height="200"><defs><style type="text/css">@font-face { font-family: feedback-iconfont; src: url("//at.alicdn.com/t/font_1031158_u69w8yhxdu.woff2?t=1630033759944") format("woff2"), url("//at.alicdn.com/t/font_1031158_u69w8yhxdu.woff?t=1630033759944") format("woff"), url("//at.alicdn.com/t/font_1031158_u69w8yhxdu.ttf?t=1630033759944") format("truetype"); }
</style></defs><path d="M934.04 402.29c-28.09-86.44-125.31-132.33-217.16-102.49-17.56 5.7-33.65 13.77-48.01 23.69 5.01-16.71 7.7-34.5 7.7-52.97 0-96.57-73.68-174.86-164.57-174.86s-164.57 78.29-164.57 174.86c0 18.47 2.69 36.26 7.7 52.97-14.36-9.92-30.45-17.99-48.01-23.69-91.85-29.84-189.07 16.05-217.16 102.49-28.08 86.44 23.6 180.71 115.45 210.55 17.56 5.7 35.31 8.64 52.74 9.05-13.86 10.59-26.49 23.41-37.34 38.34-56.76 78.13-43.17 184.78 30.36 238.19 73.53 53.43 179.15 33.4 235.93-44.73 10.86-14.94 19.13-30.92 24.91-47.37 5.77 16.46 14.05 32.43 24.91 47.37 56.78 78.13 162.4 98.16 235.93 44.73 73.53-53.41 87.12-160.06 30.36-238.19-10.84-14.93-23.48-27.74-37.34-38.34 17.43-0.41 35.18-3.35 52.74-9.05 91.83-29.85 143.51-124.11 115.43-210.55zM512 689.29c-82.78 0-149.88-67.1-149.88-149.88S429.22 389.53 512 389.53s149.88 67.1 149.88 149.88S594.78 689.29 512 689.29z" fill="#E12D38" p-id="9108"></path><path d="M934.04 402.29c-28.09-86.44-125.31-132.33-217.16-102.49-17.56 5.7-33.65 13.77-48.01 23.69 5.01-16.71 7.7-34.5 7.7-52.97 0-96.57-73.68-174.86-164.57-174.86s-164.57 78.29-164.57 174.86c0 18.47 2.69 36.26 7.7 52.97-14.36-9.92-30.45-17.99-48.01-23.69-91.85-29.84-189.07 16.05-217.16 102.49-28.08 86.44 23.6 180.71 115.45 210.55 17.56 5.7 35.31 8.64 52.74 9.05-13.86 10.59-26.49 23.41-37.34 38.34-56.76 78.13-43.17 184.78 30.36 238.19 73.53 53.43 179.15 33.4 235.93-44.73 10.86-14.94 19.13-30.92 24.91-47.37 5.77 16.46 14.05 32.43 24.91 47.37 56.78 78.13 162.4 98.16 235.93 44.73 73.53-53.41 87.12-160.06 30.36-238.19-10.84-14.93-23.48-27.74-37.34-38.34 17.43-0.41 35.18-3.35 52.74-9.05 91.83-29.85 143.51-124.11 115.43-210.55zM512 689.29c-82.78 0-149.88-67.1-149.88-149.88S429.22 389.53 512 389.53s149.88 67.1 149.88 149.88S594.78 689.29 512 689.29z" fill="#E12D38" p-id="9109"></path><path d="M512 539.41m-120.49 0a120.49 120.49 0 1 0 240.98 0 120.49 120.49 0 1 0-240.98 0Z" fill="#E12D38" p-id="9110"></path><path d="M442.97 309.15c-0.77-7.57-7.53-13.08-15.1-12.31-7.57 0.77-13.08 7.53-12.31 15.1 4.13 40.48 20.54 71.65 34.45 91.49 8.69-3.97 17.83-7.13 27.32-9.38-12.39-15.98-30.32-45.31-34.36-84.9zM518.54 390.15c-6.77-38.26-13.69-104.31 6.19-154.43 2.81-7.07-0.66-15.08-7.73-17.88-7.08-2.8-15.08 0.66-17.89 7.73-21.88 55.16-15.56 124.22-8.41 165.96 6.96-0.99 14.06-1.52 21.3-1.52 2.19-0.01 4.37 0.05 6.54 0.14zM606.93 322.51c6.61-3.78 8.9-12.19 5.13-18.8-3.77-6.61-12.19-8.9-18.8-5.13-33.97 19.41-51.77 62.82-60.37 92.88 9.24 1.29 18.2 3.42 26.82 6.32 7.98-27.11 23.02-61.45 47.22-75.27zM703.14 400.82c6.81-3.39 9.58-11.66 6.19-18.47-3.39-6.81-11.66-9.58-18.47-6.19-33.96 16.9-56.58 40.94-70.56 60.34 6.64 6.98 12.6 14.6 17.8 22.77 11.23-17.24 31.84-41.92 65.04-58.45zM801.16 423.9c-57.79-1-118.49 27.68-155.37 48.94 4.14 8.3 7.53 17.04 10.08 26.13 33.73-19.8 91.89-48.44 144.81-47.52 7.61 0.13 13.88-5.93 14.01-13.54 0.13-7.61-5.93-13.88-13.53-14.01zM661.39 541.3c28.18-2.08 65.59-0.1 87.05 17.66 5.86 4.85 14.55 4.03 19.4-1.83 4.85-5.86 4.03-14.55-1.83-19.4-29.68-24.57-75.63-26.26-106.78-23.87 1.43 8.3 2.18 16.84 2.18 25.55 0 0.63-0.01 1.26-0.02 1.89zM688.81 696.13c4.43 6.19 13.03 7.61 19.22 3.18 6.19-4.43 7.61-13.04 3.18-19.22-22.77-31.81-51.12-50.51-72.76-61.07-5.04 8-10.83 15.48-17.25 22.36 18.77 8.4 46.17 24.81 67.61 54.75zM654.3 800.47c1.08 7.53 8.06 12.76 15.59 11.69 7.53-1.08 12.76-8.06 11.69-15.59-8.07-56.38-45.04-110.98-71.8-144.17a149.905 149.905 0 0 1-22.54 16.12c24.81 30.64 59.84 81.52 67.06 131.95zM539.85 765.96c-3.86 6.56-1.67 15 4.88 18.86 6.56 3.86 15 1.67 18.86-4.88 18.35-31.17 14.51-73.28 7.94-103.45-8.4 3.65-17.2 6.56-26.32 8.63 5.37 26.4 7.46 59.06-5.36 80.84zM434.68 761.68c-3.62 6.69-1.13 15.05 5.56 18.67 6.69 3.62 15.05 1.13 18.67-5.56 17.81-32.92 22.59-65.17 22.98-88.99-9.57-1.96-18.81-4.84-27.62-8.53 0.64 20.56-2.17 52.2-19.59 84.41zM325.77 776.38c-6.3 4.27-7.94 12.84-3.67 19.13 4.27 6.3 12.84 7.94 19.13 3.67 47.62-32.28 80.68-90.28 98.67-128.89-8.23-4.54-15.99-9.84-23.18-15.79-16.23 35.63-47.27 92.27-90.95 121.88zM306.64 658.39c-7.59-0.6-14.22 5.07-14.81 12.66-0.6 7.58 5.08 14.22 12.66 14.81 38.33 3.01 76.79-21.93 100.91-41.78a150.565 150.565 0 0 1-17.41-21.32c-21.86 17.91-53.59 37.81-81.35 35.63zM362.77 532.07c-19.19 6.23-53.02 13.24-91.82 3.52-7.38-1.85-14.86 2.64-16.71 10.02-1.85 7.38 2.64 14.86 10.02 16.71 40.65 10.18 76.44 4.76 99.82-1.85-0.97-6.88-1.48-13.91-1.48-21.06-0.01-2.46 0.05-4.91 0.17-7.34zM229.71 433.73c-5.7-5.04-14.4-4.51-19.45 1.18-5.04 5.7-4.51 14.4 1.18 19.45 44.22 39.14 110.87 56.71 152.59 64.25 1.29-9.29 3.43-18.3 6.35-26.96-38.52-6.9-101.14-22.93-140.67-57.92zM339.28 385.95c-1.3-7.5-8.44-12.52-15.93-11.22-7.5 1.3-12.52 8.44-11.21 15.93 6.46 37.17 39.03 67.8 64.07 86.36a148.88 148.88 0 0 1 13.88-24.01c-21.88-16.72-46.31-41.16-50.81-67.06z" fill="#FED338" p-id="9111"></path></svg>